<svg width="198" height="38" viewBox="0 0 198 38" fill="none" xmlns="http://www.w3.org/2000/svg">
<path d="M47.456 26L41.168 13.712H44.588L48.356 21.956L51.788 13.712H53.816L57.236 21.956L61.004 13.712H64.424L58.148 26H56.144L52.796 18.008L49.448 26H47.456ZM71.9255 26.384C70.7895 26.384 69.7575 26.104 68.8295 25.544C67.9095 24.976 67.1775 24.2 66.6335 23.216C66.0975 22.232 65.8295 21.108 65.8295 19.844C65.8295 18.596 66.0895 17.484 66.6095 16.508C67.1375 15.524 67.8615 14.748 68.7815 14.18C69.7015 13.612 70.7495 13.328 71.9255 13.328C72.8855 13.328 73.7695 13.528 74.5775 13.928C75.3855 14.328 76.0255 14.884 76.4975 15.596V13.712H79.4855V26H76.4975V24.032C75.9535 24.776 75.2855 25.356 74.4935 25.772C73.7095 26.18 72.8535 26.384 71.9255 26.384ZM72.7775 23.828C73.5215 23.828 74.1775 23.66 74.7455 23.324C75.3135 22.98 75.7615 22.508 76.0895 21.908C76.4175 21.308 76.5815 20.624 76.5815 19.856C76.5815 19.08 76.4175 18.396 76.0895 17.804C75.7615 17.204 75.3135 16.736 74.7455 16.4C74.1775 16.056 73.5215 15.884 72.7775 15.884C72.0415 15.884 71.3855 16.056 70.8095 16.4C70.2335 16.736 69.7815 17.204 69.4535 17.804C69.1255 18.404 68.9615 19.088 68.9615 19.856C68.9615 20.624 69.1255 21.308 69.4535 21.908C69.7815 22.508 70.2335 22.98 70.8095 23.324C71.3855 23.66 72.0415 23.828 72.7775 23.828ZM87.7726 26.384C86.6606 26.384 85.7926 26.024 85.1686 25.304C84.5526 24.584 84.2446 23.572 84.2446 22.268V15.98H82.7446V13.712H84.2446V9.116H87.2326V13.712H90.0646V15.98H87.2326V22.064C87.2326 22.6 87.3406 23.012 87.5566 23.3C87.7726 23.58 88.0806 23.72 88.4806 23.72C88.8966 23.72 89.2766 23.592 89.6206 23.336L90.3766 25.724C90.0166 25.932 89.6046 26.092 89.1406 26.204C88.6766 26.324 88.2206 26.384 87.7726 26.384ZM99.6564 26.384C98.3444 26.384 97.1684 26.1 96.1284 25.532C95.0964 24.964 94.2764 24.188 93.6684 23.204C93.0684 22.22 92.7684 21.112 92.7684 19.88C92.7684 18.968 92.9404 18.116 93.2844 17.324C93.6284 16.532 94.1044 15.836 94.7124 15.236C95.3204 14.636 96.0284 14.168 96.8364 13.832C97.6444 13.496 98.5164 13.328 99.4524 13.328C100.732 13.328 101.852 13.592 102.812 14.12C103.78 14.648 104.532 15.384 105.068 16.328C105.612 17.272 105.884 18.372 105.884 19.628C105.884 19.732 105.88 19.82 105.872 19.892C105.864 19.956 105.848 20.068 105.824 20.228H95.8164C95.8164 20.972 95.9844 21.628 96.3204 22.196C96.6564 22.756 97.1244 23.196 97.7244 23.516C98.3324 23.828 99.0284 23.984 99.8124 23.984C100.556 23.984 101.216 23.836 101.792 23.54C102.376 23.236 102.904 22.776 103.376 22.16L105.548 23.276C104.964 24.252 104.152 25.016 103.112 25.568C102.08 26.112 100.928 26.384 99.6564 26.384ZM95.9484 18.356H102.92C102.816 17.796 102.604 17.312 102.284 16.904C101.964 16.496 101.56 16.18 101.072 15.956C100.584 15.724 100.04 15.608 99.4404 15.608C98.8084 15.608 98.2444 15.72 97.7484 15.944C97.2524 16.168 96.8484 16.484 96.5364 16.892C96.2244 17.3 96.0284 17.788 95.9484 18.356ZM109.457 26V13.712H112.445V15.5C112.877 14.796 113.417 14.26 114.065 13.892C114.713 13.516 115.425 13.328 116.201 13.328C116.609 13.328 117.025 13.384 117.449 13.496C117.881 13.6 118.249 13.74 118.553 13.916L117.317 16.448C117.053 16.288 116.745 16.16 116.393 16.064C116.049 15.968 115.729 15.92 115.433 15.92C114.921 15.92 114.437 16.052 113.981 16.316C113.525 16.58 113.153 16.92 112.865 17.336C112.585 17.752 112.445 18.2 112.445 18.68V26H109.457ZM125.175 26L118.887 13.712H122.307L126.075 21.956L129.507 13.712H131.535L134.955 21.956L138.723 13.712H142.143L135.867 26H133.863L130.515 18.008L127.167 26H125.175ZM150.602 26.384C149.274 26.384 148.074 26.108 147.002 25.556C145.938 25.004 145.094 24.236 144.47 23.252C143.846 22.268 143.534 21.136 143.534 19.856C143.534 18.568 143.846 17.436 144.47 16.46C145.094 15.476 145.938 14.708 147.002 14.156C148.066 13.604 149.266 13.328 150.602 13.328C151.93 13.328 153.126 13.604 154.19 14.156C155.262 14.708 156.106 15.476 156.722 16.46C157.346 17.436 157.658 18.568 157.658 19.856C157.658 21.136 157.346 22.268 156.722 23.252C156.106 24.236 155.262 25.004 154.19 25.556C153.126 26.108 151.93 26.384 150.602 26.384ZM150.602 23.816C151.354 23.816 152.026 23.648 152.618 23.312C153.218 22.968 153.69 22.5 154.034 21.908C154.378 21.308 154.55 20.624 154.55 19.856C154.55 19.08 154.378 18.396 154.034 17.804C153.69 17.204 153.218 16.736 152.618 16.4C152.026 16.064 151.354 15.896 150.602 15.896C149.858 15.896 149.186 16.064 148.586 16.4C147.986 16.736 147.514 17.204 147.17 17.804C146.826 18.396 146.654 19.08 146.654 19.856C146.654 20.624 146.826 21.308 147.17 21.908C147.514 22.5 147.986 22.968 148.586 23.312C149.186 23.648 149.858 23.816 150.602 23.816ZM161.23 26V13.712H164.218V15.5C164.65 14.796 165.19 14.26 165.838 13.892C166.486 13.516 167.198 13.328 167.974 13.328C168.382 13.328 168.798 13.384 169.222 13.496C169.654 13.6 170.022 13.74 170.326 13.916L169.09 16.448C168.826 16.288 168.518 16.16 168.166 16.064C167.822 15.968 167.502 15.92 167.206 15.92C166.694 15.92 166.21 16.052 165.754 16.316C165.298 16.58 164.926 16.92 164.638 17.336C164.358 17.752 164.218 18.2 164.218 18.68V26H161.23ZM172.808 26V5.36H175.796V18.404L180.476 13.712H184.352L178.484 19.652L184.628 26H180.788L175.796 20.792V26H172.808ZM190.911 26.384C189.879 26.384 188.959 26.192 188.151 25.808C187.351 25.416 186.699 24.856 186.195 24.128L187.515 22.184C187.987 22.808 188.511 23.292 189.087 23.636C189.671 23.98 190.275 24.152 190.899 24.152C191.283 24.152 191.623 24.084 191.919 23.948C192.215 23.804 192.451 23.6 192.627 23.336C192.803 23.064 192.891 22.744 192.891 22.376C192.891 21.992 192.791 21.692 192.591 21.476C192.391 21.26 192.091 21.064 191.691 20.888C191.291 20.712 190.787 20.504 190.179 20.264C189.667 20.048 189.179 19.808 188.715 19.544C188.251 19.28 187.867 18.948 187.563 18.548C187.267 18.14 187.119 17.624 187.119 17C187.119 16.288 187.315 15.656 187.707 15.104C188.107 14.552 188.651 14.12 189.339 13.808C190.035 13.496 190.827 13.34 191.715 13.34C192.355 13.34 192.999 13.456 193.647 13.688C194.295 13.912 194.943 14.24 195.591 14.672L194.511 16.556C193.575 15.78 192.651 15.392 191.739 15.392C191.203 15.392 190.771 15.52 190.443 15.776C190.123 16.032 189.963 16.36 189.963 16.76C189.963 17.088 190.103 17.368 190.383 17.6C190.663 17.832 191.011 18.036 191.427 18.212C191.843 18.388 192.259 18.556 192.675 18.716C193.331 18.956 193.907 19.212 194.403 19.484C194.899 19.756 195.287 20.108 195.567 20.54C195.847 20.972 195.987 21.548 195.987 22.268C195.987 23.132 195.779 23.872 195.363 24.488C194.955 25.104 194.371 25.576 193.611 25.904C192.851 26.224 191.951 26.384 190.911 26.384Z" fill="#454545"/>
<path d="M19 4.90833L11.1625 12.7458C9.61259 14.2959 8.55711 16.2708 8.12955 18.4207C7.70199 20.5706 7.92155 22.799 8.76045 24.8242C9.59935 26.8493 11.0199 28.5803 12.8426 29.7981C14.6652 31.0159 16.808 31.6659 19 31.6659C21.192 31.6659 23.3348 31.0159 25.1575 29.7981C26.9801 28.5803 28.4007 26.8493 29.2396 24.8242C30.0785 22.799 30.298 20.5706 29.8705 18.4207C29.4429 16.2708 28.3874 14.2959 26.8375 12.7458L19 4.90833ZM19 0.430664L29.0763 10.507C31.0692 12.4999 32.4264 15.039 32.9762 17.8032C33.526 20.5675 33.2438 23.4326 32.1653 26.0365C31.0867 28.6403 29.2603 30.8659 26.9169 32.4317C24.5735 33.9975 21.8184 34.8332 19 34.8332C16.1816 34.8332 13.4265 33.9975 11.0831 32.4317C8.73975 30.8659 6.91329 28.6403 5.83474 26.0365C4.75619 23.4326 4.47398 20.5675 5.0238 17.8032C5.57363 15.039 6.93079 12.4999 8.92367 10.507L19 0.430664ZM11.0833 20.5833H26.9167C26.9167 22.683 26.0826 24.6966 24.5979 26.1813C23.1133 27.6659 21.0996 28.5 19 28.5C16.9004 28.5 14.8867 27.6659 13.4021 26.1813C11.9174 24.6966 11.0833 22.683 11.0833 20.5833Z" fill="url(#paint0_linear_0_469)"/>
<defs>
<linearGradient id="paint0_linear_0_469" x1="19" y1="0.430664" x2="19" y2="34.8332" gradientUnits="userSpaceOnUse">
<stop stop-color="#1B18F9"/>
<stop offset="0.463542" stop-color="#1B18F9"/>
<stop offset="1" stop-color="#E146AD"/>
</linearGradient>
</defs>
</svg>
