<svg width="443" height="121" viewBox="0 0 443 121" fill="none" xmlns="http://www.w3.org/2000/svg">
<path d="M5.3 48V1.8H21.036C24.0413 1.8 26.7107 2.32266 29.044 3.368C31.3773 4.41333 33.216 5.972 34.56 8.044C35.904 10.0973 36.576 12.664 36.576 15.744C36.576 18.8053 35.904 21.4187 34.56 23.584C33.216 25.7493 31.3773 27.4107 29.044 28.568C26.7107 29.7067 24.0413 30.276 21.036 30.276H14.372V48H5.3ZM14.372 23.024H18.236C19.8227 23.024 21.2787 22.7907 22.604 22.324C23.948 21.8573 25.0307 21.1107 25.852 20.084C26.6733 19.0573 27.084 17.704 27.084 16.024C27.084 14.3253 26.6733 12.972 25.852 11.964C25.0307 10.9373 23.948 10.2 22.604 9.752C21.2787 9.28533 19.8227 9.052 18.236 9.052H14.372V23.024ZM42.2946 48V19.328H50.8906V23.444C51.9546 21.8387 53.2519 20.6067 54.7826 19.748C56.3319 18.8707 57.9932 18.432 59.7666 18.432C60.7746 18.432 61.8199 18.5813 62.9026 18.88C63.9852 19.1787 64.8906 19.5613 65.6186 20.028L62.0346 27.28C61.3999 26.8507 60.6532 26.5147 59.7946 26.272C58.9546 26.0107 58.1706 25.88 57.4426 25.88C56.3226 25.88 55.2586 26.1693 54.2506 26.748C53.2426 27.3267 52.4306 28.0827 51.8146 29.016C51.1986 29.9307 50.8906 30.92 50.8906 31.984V48H42.2946ZM84.3558 48.896C81.2011 48.896 78.3545 48.252 75.8158 46.964C73.2771 45.6573 71.2611 43.8653 69.7678 41.588C68.2745 39.292 67.5278 36.6507 67.5278 33.664C67.5278 30.6773 68.2651 28.0453 69.7398 25.768C71.2331 23.472 73.2491 21.68 75.7878 20.392C78.3451 19.0853 81.2011 18.432 84.3558 18.432C87.5291 18.432 90.3851 19.0853 92.9238 20.392C95.4625 21.68 97.4691 23.472 98.9438 25.768C100.437 28.0453 101.184 30.6773 101.184 33.664C101.184 36.6507 100.437 39.292 98.9438 41.588C97.4691 43.8653 95.4625 45.6573 92.9238 46.964C90.3851 48.252 87.5291 48.896 84.3558 48.896ZM84.3838 41.56C85.8398 41.56 87.1651 41.224 88.3598 40.552C89.5545 39.88 90.4971 38.956 91.1878 37.78C91.8785 36.5853 92.2238 35.2133 92.2238 33.664C92.2238 32.1147 91.8785 30.752 91.1878 29.576C90.4971 28.3813 89.5545 27.448 88.3598 26.776C87.1651 26.104 85.8398 25.768 84.3838 25.768C82.9091 25.768 81.5745 26.104 80.3798 26.776C79.2038 27.448 78.2705 28.3813 77.5798 29.576C76.8891 30.752 76.5438 32.1147 76.5438 33.664C76.5438 35.2133 76.8891 36.5853 77.5798 37.78C78.2705 38.956 79.2038 39.88 80.3798 40.552C81.5745 41.224 82.9091 41.56 84.3838 41.56ZM118.405 48.896C115.549 48.896 113.328 47.9907 111.741 46.18C110.154 44.3507 109.361 41.8027 109.361 38.536V25.852H105.525V19.328H109.361V8.576H117.957V19.328H124.257V25.852H117.957V37.92C117.957 39.0027 118.172 39.824 118.601 40.384C119.049 40.944 119.674 41.224 120.477 41.224C121.373 41.224 122.232 40.9253 123.053 40.328L125.209 47.216C124.238 47.7387 123.146 48.1493 121.933 48.448C120.738 48.7467 119.562 48.896 118.405 48.896ZM146.414 48.896C143.316 48.896 140.534 48.2333 138.07 46.908C135.625 45.564 133.684 43.744 132.246 41.448C130.809 39.152 130.09 36.5573 130.09 33.664C130.09 31.536 130.492 29.548 131.294 27.7C132.116 25.852 133.254 24.2373 134.71 22.856C136.166 21.456 137.856 20.3733 139.778 19.608C141.701 18.824 143.782 18.432 146.022 18.432C149.009 18.432 151.622 19.0573 153.862 20.308C156.121 21.54 157.876 23.2573 159.126 25.46C160.396 27.6627 161.03 30.2293 161.03 33.16C161.03 33.4027 161.021 33.6173 161.002 33.804C161.002 33.972 160.974 34.2987 160.918 34.784H138.938C138.938 36.24 139.265 37.5093 139.918 38.592C140.59 39.6747 141.524 40.524 142.718 41.14C143.913 41.7373 145.304 42.036 146.89 42.036C148.384 42.036 149.7 41.7467 150.838 41.168C151.996 40.5893 153.106 39.6653 154.17 38.396L160.358 41.504C159.014 43.8187 157.11 45.6293 154.646 46.936C152.182 48.2427 149.438 48.896 146.414 48.896ZM139.246 30.024H152.574C152.388 28.9227 151.986 27.9707 151.37 27.168C150.773 26.3653 150.008 25.7493 149.074 25.32C148.141 24.8907 147.086 24.676 145.91 24.676C144.66 24.676 143.558 24.8907 142.606 25.32C141.654 25.7493 140.889 26.3653 140.31 27.168C139.732 27.9707 139.377 28.9227 139.246 30.024ZM182.199 48.896C180.015 48.896 177.952 48.504 176.011 47.72C174.088 46.936 172.389 45.8533 170.915 44.472C169.44 43.072 168.283 41.4573 167.443 39.628C166.603 37.78 166.183 35.8013 166.183 33.692C166.183 31.6573 166.575 29.7253 167.359 27.896C168.161 26.0667 169.281 24.4427 170.719 23.024C172.175 21.6053 173.873 20.4853 175.815 19.664C177.775 18.8427 179.893 18.432 182.171 18.432C184.019 18.432 185.792 18.6933 187.491 19.216C189.208 19.7387 190.589 20.4107 191.635 21.232L188.695 27.028C187.295 26.0013 185.559 25.488 183.487 25.488C181.713 25.488 180.211 25.88 178.979 26.664C177.747 27.448 176.804 28.4653 176.151 29.716C175.516 30.9667 175.199 32.2827 175.199 33.664C175.199 35.176 175.544 36.5573 176.235 37.808C176.925 39.04 177.896 40.02 179.147 40.748C180.416 41.476 181.881 41.84 183.543 41.84C184.569 41.84 185.531 41.7 186.427 41.42C187.323 41.14 188.079 40.7667 188.695 40.3L191.635 46.096C190.571 46.8987 189.199 47.5613 187.519 48.084C185.839 48.6253 184.065 48.896 182.199 48.896ZM208.202 48.896C205.346 48.896 203.125 47.9907 201.538 46.18C199.951 44.3507 199.158 41.8027 199.158 38.536V25.852H195.322V19.328H199.158V8.576H207.754V19.328H214.054V25.852H207.754V37.92C207.754 39.0027 207.969 39.824 208.398 40.384C208.846 40.944 209.471 41.224 210.274 41.224C211.17 41.224 212.029 40.9253 212.85 40.328L215.006 47.216C214.035 47.7387 212.943 48.1493 211.73 48.448C210.535 48.7467 209.359 48.896 208.202 48.896ZM258.697 48.896C255.468 48.896 252.444 48.28 249.625 47.048C246.806 45.816 244.333 44.108 242.205 41.924C240.077 39.7213 238.406 37.1733 237.193 34.28C235.998 31.368 235.401 28.2507 235.401 24.928C235.401 21.6053 235.998 18.4973 237.193 15.604C238.406 12.692 240.077 10.144 242.205 7.96C244.333 5.75733 246.806 4.04 249.625 2.808C252.444 1.576 255.468 0.959998 258.697 0.959998C261.926 0.959998 264.95 1.576 267.769 2.808C270.588 4.04 273.061 5.75733 275.189 7.96C277.317 10.144 278.978 12.692 280.173 15.604C281.386 18.4973 281.993 21.6053 281.993 24.928C281.993 28.2507 281.386 31.368 280.173 34.28C278.978 37.1733 277.317 39.7213 275.189 41.924C273.061 44.108 270.588 45.816 267.769 47.048C264.95 48.28 261.926 48.896 258.697 48.896ZM258.669 40.16C260.648 40.16 262.458 39.7867 264.101 39.04C265.744 38.2933 267.172 37.2387 268.385 35.876C269.598 34.5133 270.541 32.908 271.213 31.06C271.885 29.1933 272.221 27.1493 272.221 24.928C272.221 22.7067 271.885 20.672 271.213 18.824C270.541 16.9573 269.598 15.3427 268.385 13.98C267.172 12.6173 265.744 11.5627 264.101 10.816C262.458 10.0693 260.648 9.696 258.669 9.696C256.728 9.696 254.926 10.0693 253.265 10.816C251.622 11.5627 250.194 12.6173 248.981 13.98C247.768 15.3427 246.825 16.9573 246.153 18.824C245.5 20.672 245.173 22.7067 245.173 24.928C245.173 27.1493 245.5 29.1933 246.153 31.06C246.825 32.908 247.768 34.5133 248.981 35.876C250.194 37.2387 251.622 38.2933 253.265 39.04C254.926 39.7867 256.728 40.16 258.669 40.16ZM304.03 48.896C298.804 48.896 295.033 47.86 292.718 45.788C290.404 43.716 289.246 40.328 289.246 35.624V19.328H297.842V33.608C297.842 36.632 298.309 38.7693 299.242 40.02C300.194 41.2707 301.79 41.896 304.03 41.896C306.308 41.896 307.904 41.2707 308.818 40.02C309.752 38.7693 310.218 36.632 310.218 33.608V19.328H318.814V35.624C318.814 40.328 317.657 43.716 315.342 45.788C313.046 47.86 309.276 48.896 304.03 48.896ZM328.256 48V19.328H336.852V23.444C337.916 21.8387 339.213 20.6067 340.744 19.748C342.293 18.8707 343.954 18.432 345.728 18.432C346.736 18.432 347.781 18.5813 348.864 18.88C349.946 19.1787 350.852 19.5613 351.58 20.028L347.996 27.28C347.361 26.8507 346.614 26.5147 345.756 26.272C344.916 26.0107 344.132 25.88 343.404 25.88C342.284 25.88 341.22 26.1693 340.212 26.748C339.204 27.3267 338.392 28.0827 337.776 29.016C337.16 29.9307 336.852 30.92 336.852 31.984V48H328.256ZM13.504 120L0.204 73.8H10.284L19.02 107.568L28.876 73.8H35.68L45.508 107.568L54.244 73.8H64.352L51.024 120H40.944L32.264 91.3L23.612 120H13.504ZM78.6959 120.896C76.0639 120.896 73.6652 120.243 71.4999 118.936C69.3532 117.611 67.6452 115.8 66.3759 113.504C65.1252 111.189 64.4999 108.557 64.4999 105.608C64.4999 102.733 65.1065 100.157 66.3199 97.88C67.5332 95.584 69.2039 93.7733 71.3319 92.448C73.4785 91.104 75.9332 90.432 78.6959 90.432C80.7305 90.432 82.6252 90.824 84.3799 91.608C86.1532 92.3733 87.5999 93.4467 88.7199 94.828V91.328H97.3159V120H88.7199V116.22C87.4132 117.732 85.9105 118.889 84.2119 119.692C82.5132 120.495 80.6745 120.896 78.6959 120.896ZM81.2439 113.588C82.7372 113.588 84.0625 113.252 85.2199 112.58C86.3772 111.889 87.2825 110.947 87.9359 109.752C88.5892 108.557 88.9159 107.195 88.9159 105.664C88.9159 104.115 88.5799 102.752 87.9079 101.576C87.2545 100.381 86.3492 99.448 85.1919 98.776C84.0532 98.0853 82.7372 97.74 81.2439 97.74C79.7692 97.74 78.4532 98.0853 77.2959 98.776C76.1385 99.448 75.2239 100.381 74.5519 101.576C73.8799 102.771 73.5439 104.133 73.5439 105.664C73.5439 107.195 73.8705 108.557 74.5239 109.752C75.1959 110.947 76.1105 111.889 77.2679 112.58C78.4252 113.252 79.7505 113.588 81.2439 113.588ZM116.929 120.896C114.073 120.896 111.851 119.991 110.265 118.18C108.678 116.351 107.885 113.803 107.885 110.536V97.852H104.049V91.328H107.885V80.576H116.481V91.328H122.781V97.852H116.481V109.92C116.481 111.003 116.695 111.824 117.125 112.384C117.573 112.944 118.198 113.224 119.001 113.224C119.897 113.224 120.755 112.925 121.577 112.328L123.733 119.216C122.762 119.739 121.67 120.149 120.457 120.448C119.262 120.747 118.086 120.896 116.929 120.896ZM144.938 120.896C141.839 120.896 139.058 120.233 136.594 118.908C134.148 117.564 132.207 115.744 130.77 113.448C129.332 111.152 128.614 108.557 128.614 105.664C128.614 103.536 129.015 101.548 129.818 99.7C130.639 97.852 131.778 96.2373 133.234 94.856C134.69 93.456 136.379 92.3733 138.302 91.608C140.224 90.824 142.306 90.432 144.546 90.432C147.532 90.432 150.146 91.0573 152.386 92.308C154.644 93.54 156.399 95.2573 157.65 97.46C158.919 99.6627 159.554 102.229 159.554 105.16C159.554 105.403 159.544 105.617 159.526 105.804C159.526 105.972 159.498 106.299 159.442 106.784H137.462C137.462 108.24 137.788 109.509 138.442 110.592C139.114 111.675 140.047 112.524 141.242 113.14C142.436 113.737 143.827 114.036 145.414 114.036C146.907 114.036 148.223 113.747 149.362 113.168C150.519 112.589 151.63 111.665 152.694 110.396L158.882 113.504C157.538 115.819 155.634 117.629 153.17 118.936C150.706 120.243 147.962 120.896 144.938 120.896ZM137.77 102.024H151.098C150.911 100.923 150.51 99.9707 149.894 99.168C149.296 98.3653 148.531 97.7493 147.598 97.32C146.664 96.8907 145.61 96.676 144.434 96.676C143.183 96.676 142.082 96.8907 141.13 97.32C140.178 97.7493 139.412 98.3653 138.834 99.168C138.255 99.9707 137.9 100.923 137.77 102.024ZM167.201 120V91.328H175.797V95.444C176.861 93.8387 178.158 92.6067 179.689 91.748C181.238 90.8707 182.899 90.432 184.673 90.432C185.681 90.432 186.726 90.5813 187.809 90.88C188.891 91.1787 189.797 91.5613 190.525 92.028L186.941 99.28C186.306 98.8507 185.559 98.5147 184.701 98.272C183.861 98.0107 183.077 97.88 182.349 97.88C181.229 97.88 180.165 98.1693 179.157 98.748C178.149 99.3267 177.337 100.083 176.721 101.016C176.105 101.931 175.797 102.92 175.797 103.984V120H167.201ZM209.228 120V73.8H222.472C226.915 73.8 230.396 74.7707 232.916 76.712C235.436 78.6533 236.696 81.556 236.696 85.42C236.696 90.2173 234.717 93.6053 230.76 95.584C233.989 96.088 236.463 97.3293 238.18 99.308C239.916 101.268 240.784 103.844 240.784 107.036C240.784 109.724 240.177 112.039 238.964 113.98C237.751 115.921 236.024 117.415 233.784 118.46C231.544 119.487 228.893 120 225.832 120H209.228ZM218.272 92.504H220.372C222.817 92.504 224.693 92 226 90.992C227.307 89.9653 227.96 88.5 227.96 86.596C227.96 84.6733 227.325 83.236 226.056 82.284C224.787 81.3133 222.892 80.828 220.372 80.828H218.272V92.504ZM218.272 112.944H222.752C225.589 112.944 227.717 112.421 229.136 111.376C230.573 110.331 231.292 108.791 231.292 106.756C231.292 104.684 230.555 103.097 229.08 101.996C227.624 100.876 225.515 100.316 222.752 100.316H218.272V112.944ZM261.538 120.896C256.311 120.896 252.541 119.86 250.226 117.788C247.911 115.716 246.754 112.328 246.754 107.624V91.328H255.35V105.608C255.35 108.632 255.817 110.769 256.75 112.02C257.702 113.271 259.298 113.896 261.538 113.896C263.815 113.896 265.411 113.271 266.326 112.02C267.259 110.769 267.726 108.632 267.726 105.608V91.328H276.322V107.624C276.322 112.328 275.165 115.716 272.85 117.788C270.554 119.86 266.783 120.896 261.538 120.896ZM297.635 120.896C295.041 120.896 292.67 120.252 290.523 118.964C288.395 117.657 286.697 115.856 285.427 113.56C284.158 111.264 283.523 108.632 283.523 105.664C283.523 102.752 284.139 100.157 285.371 97.88C286.603 95.584 288.293 93.7733 290.439 92.448C292.605 91.104 295.078 90.432 297.859 90.432C299.875 90.432 301.742 90.824 303.459 91.608C305.177 92.3733 306.605 93.4467 307.743 94.828V71.84H316.339V120H307.743V116.22C306.474 117.695 304.971 118.843 303.235 119.664C301.499 120.485 299.633 120.896 297.635 120.896ZM300.211 113.588C301.723 113.588 303.058 113.252 304.215 112.58C305.373 111.889 306.278 110.947 306.931 109.752C307.603 108.557 307.939 107.204 307.939 105.692C307.939 104.161 307.603 102.799 306.931 101.604C306.278 100.409 305.373 99.4667 304.215 98.776C303.058 98.0853 301.733 97.74 300.239 97.74C298.765 97.74 297.449 98.0853 296.291 98.776C295.153 99.4667 294.247 100.419 293.575 101.632C292.903 102.827 292.567 104.189 292.567 105.72C292.567 107.232 292.894 108.585 293.547 109.78C294.201 110.956 295.106 111.889 296.263 112.58C297.421 113.252 298.737 113.588 300.211 113.588ZM338.323 120.896C335.728 120.896 333.357 120.252 331.211 118.964C329.083 117.657 327.384 115.856 326.115 113.56C324.845 111.264 324.211 108.632 324.211 105.664C324.211 102.752 324.827 100.157 326.059 97.88C327.291 95.584 328.98 93.7733 331.127 92.448C333.292 91.104 335.765 90.432 338.547 90.432C340.563 90.432 342.429 90.824 344.147 91.608C345.864 92.3733 347.292 93.4467 348.431 94.828V71.84H357.027V120H348.431V116.22C347.161 117.695 345.659 118.843 343.923 119.664C342.187 120.485 340.32 120.896 338.323 120.896ZM340.899 113.588C342.411 113.588 343.745 113.252 344.903 112.58C346.06 111.889 346.965 110.947 347.619 109.752C348.291 108.557 348.627 107.204 348.627 105.692C348.627 104.161 348.291 102.799 347.619 101.604C346.965 100.409 346.06 99.4667 344.903 98.776C343.745 98.0853 342.42 97.74 340.927 97.74C339.452 97.74 338.136 98.0853 336.979 98.776C335.84 99.4667 334.935 100.419 334.263 101.632C333.591 102.827 333.255 104.189 333.255 105.72C333.255 107.232 333.581 108.585 334.235 109.78C334.888 110.956 335.793 111.889 336.951 112.58C338.108 113.252 339.424 113.588 340.899 113.588ZM367.11 120V91.328H375.706V120H367.11ZM371.422 85.364C370.489 85.364 369.63 85.14 368.846 84.692C368.081 84.2253 367.465 83.6 366.998 82.816C366.532 82.032 366.298 81.1733 366.298 80.24C366.298 79.3067 366.532 78.4573 366.998 77.692C367.465 76.9267 368.081 76.32 368.846 75.872C369.63 75.4053 370.489 75.172 371.422 75.172C372.356 75.172 373.205 75.4053 373.97 75.872C374.736 76.32 375.342 76.9267 375.79 77.692C376.257 78.4573 376.49 79.3067 376.49 80.24C376.49 81.1733 376.257 82.032 375.79 82.816C375.342 83.6 374.736 84.2253 373.97 84.692C373.205 85.14 372.356 85.364 371.422 85.364ZM399.617 120.896C396.519 120.896 393.737 120.233 391.273 118.908C388.828 117.564 386.887 115.744 385.449 113.448C384.012 111.152 383.293 108.557 383.293 105.664C383.293 103.536 383.695 101.548 384.497 99.7C385.319 97.852 386.457 96.2373 387.913 94.856C389.369 93.456 391.059 92.3733 392.981 91.608C394.904 90.824 396.985 90.432 399.225 90.432C402.212 90.432 404.825 91.0573 407.065 92.308C409.324 93.54 411.079 95.2573 412.329 97.46C413.599 99.6627 414.233 102.229 414.233 105.16C414.233 105.403 414.224 105.617 414.205 105.804C414.205 105.972 414.177 106.299 414.121 106.784H392.141C392.141 108.24 392.468 109.509 393.121 110.592C393.793 111.675 394.727 112.524 395.921 113.14C397.116 113.737 398.507 114.036 400.093 114.036C401.587 114.036 402.903 113.747 404.041 113.168C405.199 112.589 406.309 111.665 407.373 110.396L413.561 113.504C412.217 115.819 410.313 117.629 407.849 118.936C405.385 120.243 402.641 120.896 399.617 120.896ZM392.449 102.024H405.777C405.591 100.923 405.189 99.9707 404.573 99.168C403.976 98.3653 403.211 97.7493 402.277 97.32C401.344 96.8907 400.289 96.676 399.113 96.676C397.863 96.676 396.761 96.8907 395.809 97.32C394.857 97.7493 394.092 98.3653 393.513 99.168C392.935 99.9707 392.58 100.923 392.449 102.024ZM429.891 120.896C427.464 120.896 425.29 120.513 423.367 119.748C421.463 118.983 419.876 117.863 418.607 116.388L422.219 110.62C423.414 111.889 424.664 112.86 425.971 113.532C427.278 114.204 428.584 114.54 429.891 114.54C430.619 114.54 431.244 114.419 431.767 114.176C432.308 113.933 432.728 113.588 433.027 113.14C433.344 112.673 433.503 112.113 433.503 111.46C433.503 110.713 433.288 110.125 432.859 109.696C432.448 109.267 431.814 108.875 430.955 108.52C430.096 108.147 428.986 107.68 427.623 107.12C426.466 106.635 425.355 106.084 424.291 105.468C423.227 104.852 422.359 104.068 421.687 103.116C421.034 102.164 420.707 100.96 420.707 99.504C420.707 97.7307 421.202 96.172 422.191 94.828C423.18 93.4653 424.543 92.4013 426.279 91.636C428.034 90.8707 430.05 90.488 432.327 90.488C433.746 90.488 435.23 90.7027 436.779 91.132C438.347 91.5613 440.018 92.2147 441.791 93.092L438.851 98.608C436.443 97.0587 434.287 96.284 432.383 96.284C431.319 96.284 430.47 96.5173 429.835 96.984C429.2 97.4507 428.883 98.0387 428.883 98.748C428.883 99.42 429.21 100.008 429.863 100.512C430.535 100.997 431.347 101.436 432.299 101.828C433.27 102.201 434.194 102.547 435.071 102.864C436.508 103.387 437.778 103.965 438.879 104.6C439.999 105.235 440.876 106.065 441.511 107.092C442.146 108.1 442.463 109.453 442.463 111.152C442.463 113.224 441.959 114.988 440.951 116.444C439.962 117.881 438.524 118.983 436.639 119.748C434.772 120.513 432.523 120.896 429.891 120.896Z" fill="url(#paint0_linear_0_7)"/>
<defs>
<linearGradient id="paint0_linear_0_7" x1="222.5" y1="-5" x2="222.5" y2="139" gradientUnits="userSpaceOnUse">
<stop stop-color="#1B18F9"/>
<stop offset="0.463542" stop-color="#1B18F9"/>
<stop offset="1" stop-color="#E146AD"/>
</linearGradient>
</defs>
</svg>
